<?xml version="1.0" standalone="no"?>
<!DOCTYPE svg PUBLIC "-//W3C//DTD SVG 20010904//EN"
 "http://www.w3.org/TR/2001/REC-SVG-20010904/DTD/svg10.dtd">
<svg version="1.0" xmlns="http://www.w3.org/2000/svg"
 width="640.000000pt" height="640.000000pt" viewBox="0 0 640.000000 640.000000"
 preserveAspectRatio="xMidYMid meet">
<metadata>
Created by potrace 1.11, written by Peter Selinger 2001-2013
</metadata>
<g transform="translate(0.000000,640.000000) scale(0.100000,-0.100000)"
fill="#000000" stroke="none">
<path d="M3127 5584 c-1 -1 -38 -5 -82 -9 -84 -7 -127 -12 -185 -21 -19 -3
-46 -8 -60 -10 -127 -21 -363 -91 -495 -147 -138 -58 -404 -207 -479 -268 -6
-5 -49 -39 -96 -76 -177 -139 -452 -441 -428 -470 6 -7 16 -13 22 -13 7 0 45
41 86 91 130 161 260 286 425 409 81 60 110 79 218 144 231 138 576 258 832
291 22 3 65 9 95 14 87 14 452 11 564 -5 359 -51 699 -178 981 -367 405 -270
706 -635 888 -1077 60 -145 122 -365 142 -505 4 -22 8 -47 10 -55 11 -41 20
-190 20 -320 0 -199 -14 -334 -51 -507 l-16 -73 -299 0 c-164 0 -299 3 -299 6
0 8 -287 1120 -299 1159 -5 17 -28 104 -51 195 -81 316 -120 464 -125 468 -4
4 -517 6 -561 3 -12 -1 -14 -13 -39 -176 -18 -115 -24 -150 -30 -185 -2 -14
-7 -43 -10 -65 -3 -23 -7 -50 -9 -60 -5 -26 -15 -90 -22 -140 -8 -58 -11 -80
-28 -180 -8 -49 -18 -110 -21 -135 -8 -55 -34 -226 -41 -260 -2 -14 -7 -45
-10 -70 -3 -25 -7 -52 -9 -60 -2 -8 -7 -37 -11 -65 -3 -27 -7 -57 -9 -65 -3
-14 -11 -71 -21 -135 -3 -16 -7 -37 -9 -45 -2 -8 -6 -37 -10 -65 -3 -27 -8
-57 -10 -65 -2 -8 -6 -37 -10 -65 -3 -27 -8 -57 -10 -65 -2 -8 -6 -35 -9 -60
-3 -25 -8 -54 -10 -65 -2 -11 -7 -42 -10 -68 -4 -27 -9 -56 -10 -65 -2 -10 -7
-39 -10 -65 -4 -27 -9 -58 -12 -70 -6 -31 -14 -88 -29 -192 -4 -27 -10 -66
-14 -85 -4 -19 -6 -39 -4 -45 2 -9 141 -11 364 -6 l35 1 23 128 c26 144 58
328 66 387 3 22 8 47 10 55 2 8 6 37 10 64 3 27 8 52 10 56 2 3 6 33 10 65 3
33 8 67 11 76 3 9 7 34 9 55 3 20 7 49 10 63 2 14 11 73 20 131 8 58 17 112
20 120 2 8 6 38 10 65 3 28 12 91 20 140 23 147 52 362 82 592 9 73 19 131 21
128 3 -3 16 -47 29 -97 53 -209 343 -1372 371 -1488 l29 -125 693 0 c538 0
694 3 702 12 12 14 -8 25 -48 27 -27 2 -51 22 -40 33 4 5 41 9 83 10 80 1 89
4 80 28 -5 12 -27 15 -126 15 -76 0 -122 4 -127 11 -15 25 19 32 166 31 123 0
152 3 157 14 9 24 -1 26 -97 26 -71 0 -93 4 -97 15 -9 22 11 30 70 28 28 -1
57 2 64 7 22 17 3 35 -39 36 -47 2 -53 5 -45 27 5 11 23 15 77 15 63 0 71 2
68 18 -3 16 -27 17 -301 20 -278 2 -298 3 -293 20 6 19 33 159 41 212 13 83
20 206 20 350 0 227 -11 317 -70 584 -34 151 -135 407 -225 568 -128 228 -227
356 -424 553 -311 309 -697 523 -1131 626 -107 25 -105 25 -175 34 -30 4 -64
9 -75 11 -44 9 -401 24 -408 18z"/>
<path d="M2207 4442 c-20 -4 -27 -27 -42 -137 -3 -23 -7 -52 -10 -65 -8 -38
-23 -131 -29 -170 -3 -19 -12 -73 -20 -120 -8 -47 -18 -107 -22 -135 -3 -27
-7 -52 -9 -55 -2 -3 -6 -30 -10 -60 -4 -30 -8 -57 -10 -60 -2 -3 -7 -33 -10
-65 -4 -33 -9 -63 -11 -66 -2 -3 -8 -37 -14 -75 -6 -38 -13 -80 -15 -94 -2
-14 -11 -65 -19 -115 -9 -49 -18 -103 -20 -120 -3 -16 -10 -61 -17 -100 -6
-38 -13 -81 -16 -95 -6 -27 -29 59 -168 635 -43 176 -88 361 -100 410 l-22 90
-631 2 c-429 2 -633 0 -637 -7 -12 -19 13 -37 44 -32 31 4 50 -13 32 -31 -6
-6 -42 -12 -79 -13 -85 -2 -82 -1 -82 -19 0 -18 -7 -17 130 -20 137 -3 130 -2
130 -20 0 -21 -27 -25 -185 -28 -117 -2 -140 -4 -140 -17 0 -12 19 -16 98 -18
89 -2 97 -4 97 -22 0 -22 -3 -23 -76 -21 -35 1 -55 -3 -64 -14 -14 -17 3 -27
51 -29 15 -1 33 -6 40 -13 18 -18 -18 -30 -83 -28 -41 1 -59 -3 -63 -13 -3 -7
-3 -17 0 -22 3 -4 161 -8 352 -8 197 1 348 -3 348 -8 0 -12 -16 -124 -21 -149
-22 -121 -22 -477 1 -615 2 -14 6 -43 10 -65 11 -81 18 -112 41 -207 25 -99
74 -256 100 -315 39 -91 50 -114 86 -188 176 -357 479 -697 818 -920 601 -394
1308 -501 2005 -301 6 1 29 8 52 15 80 22 228 83 343 140 329 165 592 380 834
684 31 39 36 50 26 62 -18 22 -36 18 -56 -13 -36 -56 -164 -200 -257 -288
-430 -412 -1029 -650 -1622 -648 -102 1 -288 12 -315 19 -8 2 -31 6 -50 9 -32
5 -104 19 -155 30 -62 13 -157 41 -243 70 -335 115 -637 303 -891 556 -450
449 -695 1039 -694 1675 0 104 9 262 18 295 2 8 6 38 10 65 3 28 9 60 12 73 6
24 0 23 168 23 162 0 172 0 172 -13 0 -7 8 -51 17 -98 10 -47 20 -94 22 -105
6 -30 11 -56 23 -105 5 -25 12 -56 15 -70 2 -14 12 -58 20 -97 9 -40 18 -87
21 -105 3 -18 8 -41 11 -50 3 -9 7 -27 9 -40 3 -13 7 -34 10 -48 3 -14 7 -34
9 -45 2 -11 14 -65 26 -120 11 -55 37 -176 56 -270 19 -93 39 -186 44 -205 5
-19 12 -51 15 -70 3 -19 8 -42 10 -50 2 -8 6 -26 9 -40 2 -14 14 -70 26 -125
11 -55 26 -122 31 -150 l11 -50 206 2 c264 2 249 1 249 16 1 13 9 64 18 117 3
19 10 60 15 90 5 30 12 71 15 90 3 19 7 46 10 60 3 14 7 41 10 60 3 19 10 60
15 90 5 30 12 71 15 90 3 19 10 60 15 90 5 30 12 71 15 90 3 19 7 46 10 60 3
14 7 41 10 60 3 19 8 48 11 63 3 16 7 38 9 50 1 12 5 40 9 62 51 308 53 319
60 290 8 -39 13 -64 20 -111 4 -22 29 -176 57 -344 27 -168 52 -316 54 -330 2
-14 11 -68 20 -120 9 -52 18 -106 20 -120 5 -34 34 -210 39 -237 3 -11 8 -42
11 -67 6 -38 11 -46 29 -47 60 -3 428 -1 431 2 1 2 -5 47 -16 99 -10 52 -20
109 -23 125 -3 17 -19 100 -35 185 -16 85 -32 169 -34 185 -4 25 -24 129 -43
230 -4 20 -72 388 -80 435 -3 14 -13 70 -24 125 -10 55 -21 116 -25 135 -3 19
-10 58 -15 85 -16 80 -19 95 -35 180 -8 44 -21 118 -30 165 -15 83 -25 135
-44 243 -6 28 -19 102 -31 162 -11 61 -23 124 -25 140 -10 61 -27 125 -33 126
-20 3 -361 3 -375 1z"/>
<path d="M3283 4442 c-24 -4 -25 -9 -43 -137 -6 -44 -13 -91 -15 -105 -7 -47
-17 -115 -20 -140 -7 -50 -66 -456 -71 -485 -3 -16 -7 -50 -9 -75 -3 -25 -7
-56 -10 -70 -15 -76 -56 -369 -57 -403 0 -18 14 -104 31 -192 35 -174 124
-626 162 -822 22 -114 38 -154 40 -100 1 23 2 33 19 132 8 49 37 242 75 500 3
22 8 52 11 67 3 15 7 42 9 60 4 33 14 96 21 132 2 11 8 54 14 96 6 42 12 86
14 97 4 19 9 52 21 138 2 17 9 59 14 95 6 36 13 83 16 105 4 22 8 51 11 65 2
14 7 43 9 65 3 22 10 65 15 95 5 30 12 75 15 100 3 25 10 70 15 100 15 88 23
143 26 170 1 14 3 25 4 25 1 0 3 16 6 35 2 19 11 76 19 125 8 50 17 113 21
140 3 28 7 52 9 55 8 14 15 130 8 131 -25 3 -362 4 -380 1z"/>
<path d="M6 4033 c-7 -17 28 -31 61 -25 15 3 23 10 21 21 -4 21 -74 25 -82 4z"/>
<path d="M123 4033 c-3 -7 -3 -16 0 -19 10 -11 198 -7 209 4 23 23 -5 31 -103
30 -78 0 -102 -3 -106 -15z"/>
<path d="M63 3953 c-9 -24 7 -29 94 -27 111 2 105 1 101 21 -3 15 -16 18 -97
18 -65 1 -95 -3 -98 -12z"/>
<path d="M106 3865 c-7 -19 12 -28 51 -23 42 5 36 32 -8 36 -26 2 -38 -1 -43
-13z"/>
<path d="M175 3790 c-11 -18 14 -38 40 -32 31 5 42 21 24 33 -19 12 -56 11
-64 -1z"/>
<path d="M112 3779 c2 -6 8 -10 13 -10 5 0 11 4 13 10 2 6 -4 11 -13 11 -9 0
-15 -5 -13 -11z"/>
<path d="M6150 2516 c-6 -6 -10 -13 -10 -17 0 -11 45 -16 70 -7 18 7 20 11 10
23 -13 16 -55 16 -70 1z"/>
<path d="M6257 2513 c-3 -5 -2 -15 2 -22 7 -10 10 -10 16 -1 4 6 3 16 -3 22
-5 5 -12 6 -15 1z"/>
<path d="M6231 2441 c-34 -9 -38 -29 -7 -37 28 -7 66 3 66 16 0 16 -34 27 -59
21z"/>
<path d="M6136 2344 c-4 -9 -4 -19 -2 -22 8 -7 181 -6 194 2 6 3 9 13 5 21 -8
23 -188 22 -197 -1z"/>
<path d="M6060 2264 c-19 -22 14 -31 107 -30 91 2 131 14 101 32 -21 13 -197
12 -208 -2z"/>
<path d="M6309 2270 c-10 -7 -10 -11 0 -24 11 -13 27 -14 74 -7 15 2 6 31 -10
32 -10 0 -25 2 -34 4 -9 1 -22 -1 -30 -5z"/>
</g>
</svg>
